HIERARCHY
ROOT hip
{
  OFFSET 0 0 0
  CHANNELS 6 Xposition Yposition Zposition Zrotation Yrotation Xrotation
  JOINT abdomen
  {
    OFFSET 0 20.6881 -0.73152
    CHANNELS 3 Zrotation Xrotation Yrotation
    JOINT chest
    {
      OFFSET 0 11.7043 -0.48768
      CHANNELS 3 Zrotation Xrotation Yrotation
      JOINT neck
      {
        OFFSET 0 22.1894 -2.19456
        CHANNELS 3 Zrotation Xrotation Yrotation
        JOINT head
        {
          OFFSET -0.24384 7.07133 1.2192
          CHANNELS 3 Zrotation Xrotation Yrotation
          JOINT leftEye
          {
            OFFSET 4.14528 8.04674 8.04672
            CHANNELS 3 Zrotation Xrotation Yrotation
            End Site
            {
              OFFSET 1 0 0
            }
          }
          JOINT rightEye
          {
            OFFSET -3.6576 8.04674 8.04672
            CHANNELS 3 Zrotation Xrotation Yrotation
            End Site
            {
              OFFSET 1 0 0
            }
          }
        }
      }
      JOINT rCollar
      {
        OFFSET -2.68224 19.2634 -4.8768
        CHANNELS 3 Zrotation Xrotation Yrotation
        JOINT rShldr
        {
          OFFSET -8.77824 -1.95073 1.46304
          CHANNELS 3 Zrotation Xrotation Yrotation
          JOINT rForeArm
          {
            OFFSET -28.1742 -1.7115 0.48768
            CHANNELS 3 Zrotation Xrotation Yrotation
            JOINT rHand
            {
              OFFSET -22.5879 0.773209 7.07136
              CHANNELS 3 Zrotation Xrotation Yrotation
              JOINT rThumb1
              {
                OFFSET -1.2192 -0.487915 3.41376
                CHANNELS 3 Zrotation Xrotation Yrotation
                JOINT rThumb2
                {
                  OFFSET -3.37035 -0.52449 3.41376
                  CHANNELS 3 Zrotation Xrotation Yrotation
                  End Site
                  {
                    OFFSET -1.78271 -1.18214 1.43049
                  }
                }
              }
              JOINT rIndex1
              {
                OFFSET -7.75947 0.938293 5.60832
                CHANNELS 3 Zrotation Xrotation Yrotation
                JOINT rIndex2
                {
                  OFFSET -2.54057 -0.884171 1.56538
                  CHANNELS 3 Zrotation Xrotation Yrotation
                  End Site
                  {
                    OFFSET -1.62519 -0.234802 1.16502
                  }
                }
              }
              JOINT rMid1
              {
                OFFSET -8.24714 1.18213 3.41376
                CHANNELS 3 Zrotation Xrotation Yrotation
                JOINT rMid2
                {
                  OFFSET -3.10165 -0.590103 1.0647
                  CHANNELS 3 Zrotation Xrotation Yrotation
                  End Site
                  {
                    OFFSET -2.48547 -0.328903 0.83742
                  }
                }
              }
              JOINT rRing1
              {
                OFFSET -8.82822 0.546677 1.51678
                CHANNELS 3 Zrotation Xrotation Yrotation
                JOINT rRing2
                {
                  OFFSET -2.60934 -0.819778 -0.0198488
                  CHANNELS 3 Zrotation Xrotation Yrotation
                  End Site
                  {
                    OFFSET -2.33842 -0.294052 0.168128
                  }
                }
              }
              JOINT rPinky1
              {
                OFFSET -8.27202 -0.0477905 -0.4584
                CHANNELS 3 Zrotation Xrotation Yrotation
                JOINT rPinky2
                {
                  OFFSET -1.82734 -0.647385 -0.700984
                  CHANNELS 3 Zrotation Xrotation Yrotation
                  End Site
                  {
                    OFFSET -1.69225 -0.51767 -0.607171
                  }
                }
              }
            }
          }
        }
      }
      JOINT lCollar
      {
        OFFSET 2.68224 19.2634 -4.8768
        CHANNELS 3 Zrotation Xrotation Yrotation
        JOINT lShldr
        {
          OFFSET 8.77824 -1.95073 1.46304
          CHANNELS 3 Zrotation Xrotation Yrotation
          JOINT lForeArm
          {
            OFFSET 28.1742 -1.7115 0.48768
            CHANNELS 3 Zrotation Xrotation Yrotation
            JOINT lHand
            {
              OFFSET 22.5879 0.773209 7.07136
              CHANNELS 3 Zrotation Xrotation Yrotation
              JOINT lThumb1
              {
                OFFSET 1.2192 -0.487915 3.41376
                CHANNELS 3 Zrotation Xrotation Yrotation
                JOINT lThumb2
                {
                  OFFSET 3.37035 -0.52449 3.41376
                  CHANNELS 3 Zrotation Xrotation Yrotation
                  End Site
                  {
                    OFFSET 1.78271 -1.18214 1.43049
                  }
                }
              }
              JOINT lIndex1
              {
                OFFSET 7.75947 0.938293 5.60832
                CHANNELS 3 Zrotation Xrotation Yrotation
                JOINT lIndex2
                {
                  OFFSET 2.54057 -0.884171 1.56538
                  CHANNELS 3 Zrotation Xrotation Yrotation
                  End Site
                  {
                    OFFSET 1.62519 -0.234802 1.16502
                  }
                }
              }
              JOINT lMid1
              {
                OFFSET 8.24714 1.18213 3.41376
                CHANNELS 3 Zrotation Xrotation Yrotation
                JOINT lMid2
                {
                  OFFSET 3.10165 -0.590103 1.0647
                  CHANNELS 3 Zrotation Xrotation Yrotation
                  End Site
                  {
                    OFFSET 2.48547 -0.328903 0.83742
                  }
                }
              }
              JOINT lRing1
              {
                OFFSET 8.82822 0.546677 1.51678
                CHANNELS 3 Zrotation Xrotation Yrotation
                JOINT lRing2
                {
                  OFFSET 2.60934 -0.819778 -0.0198488
                  CHANNELS 3 Zrotation Xrotation Yrotation
                  End Site
                  {
                    OFFSET 2.33842 -0.294052 0.168128
                  }
                }
              }
              JOINT lPinky1
              {
                OFFSET 8.27202 -0.0477905 -0.4584
                CHANNELS 3 Zrotation Xrotation Yrotation
                JOINT lPinky2
                {
                  OFFSET 1.82734 -0.647385 -0.700984
                  CHANNELS 3 Zrotation Xrotation Yrotation
                  End Site
                  {
                    OFFSET 1.69225 -0.51767 -0.607171
                  }
                }
              }
            }
          }
        }
      }
    }
  }
  JOINT rButtock
  {
    OFFSET -8.77824 4.35084 1.2192
    CHANNELS 3 Zrotation Xrotation Yrotation
    JOINT rThigh
    {
      OFFSET 0 -1.70687 -2.19456
      CHANNELS 3 Zrotation Xrotation Yrotation
      JOINT rShin
      {
        OFFSET 0 -36.8199 0.73152
        CHANNELS 3 Zrotation Xrotation Yrotation
        JOINT rFoot
        {
          OFFSET 0.73152 -45.1104 -5.12064
          CHANNELS 3 Zrotation Xrotation Yrotation
          End Site
          {
            OFFSET -1.1221 -3.69964 12.103
          }
        }
      }
    }
  }
  JOINT lButtock
  {
    OFFSET 8.77824 4.35084 1.2192
    CHANNELS 3 Zrotation Xrotation Yrotation
    JOINT lThigh
    {
      OFFSET 0 -1.70687 -2.19456
      CHANNELS 3 Zrotation Xrotation Yrotation
      JOINT lShin
      {
        OFFSET 0 -36.8199 0.73152
        CHANNELS 3 Zrotation Xrotation Yrotation
        JOINT lFoot
        {
          OFFSET -0.73152 -45.1104 -5.12064
          CHANNELS 3 Zrotation Xrotation Yrotation
          End Site
          {
            OFFSET 1.1221 -3.69964 12.103
          }
        }
      }
    }
  }
}
MOTION
Frames:	7
Frame Time:	0.00833333
-20.2327 63.6622 -105.675 -537.315 -491.55 -168.831 1.82797 27.2264 -7.00761 2.37272 -4.34305 -1.82561 -4.37914 9.73948 -11.5359 19.4503 -40.4796 -17.1655 -0.0 0.0 0.0 -0.0 0.0 0.0 -4.40753e-13 -1.57624e-15 6.40138e-13 31.0765 7.59015 30.6446 -27.2786 -43.1677 89.8757 -0.0190828 -3.93893 -0.554524 4.10843e-10 -7.5263e-09 -4.77682e-09 7.15787e-10 -1.3008e-08 -8.2506e-09 4.10847e-10 -7.52631e-09 -4.77683e-09 7.73091 5.47488 0.417314 4.10842e-10 -7.5263e-09 -4.77682e-09 2.90554 0.965183 0.102902 4.10849e-10 -7.5263e-09 -4.77682e-09 10.2786 0.731801 0.0259123 4.10841e-10 -7.5263e-09 -4.77682e-09 2.22167 -0.733487 -0.20892 -4.40819e-13 -1.62892e-15 6.40017e-13 1.04028 -0.453545 -77.2553 28.4467 -35.9878 -76.9251 0.0331351 5.05115 -0.71222 -3.86372e-10 2.7524e-09 3.77293e-09 -6.5673e-10 4.78163e-09 6.50859e-09 -3.86376e-10 2.7524e-09 3.77294e-09 -7.73091 5.47488 -0.417314 -3.86373e-10 2.75239e-09 3.77293e-09 -2.90554 0.965183 -0.102902 -3.86376e-10 2.75239e-09 3.77293e-09 -10.2786 0.731801 -0.0259123 -3.86365e-10 2.7524e-09 3.77293e-09 -2.22167 -0.733487 0.20892 -2.03217e-16 0.0 -3.88251e-19 -61.0524 -66.4611 -56.7478 -173.881 78.466 174.797 -0.626144 10.89 26.1596 2.03217e-16 0.0 3.88251e-19 -66.3741 -60.4387 -71.7143 174.692 76.6174 -175.821 -1.83868 -13.6487 -4.98025
-20.2364 64.6108 -105.671 -537.795 -492.821 -168.985 1.91032 26.6276 -7.73902 2.75716 -3.95402 -2.02375 -4.65736 9.7323 -11.6408 19.7596 -39.4144 -17.3241 -0.0 0.0 0.0 -0.0 0.0 0.0 -3.66165e-13 2.67667e-13 6.91749e-13 34.4194 11.7549 27.688 -27.1891 -43.421 90.3862 -0.0107106 -2.99237 -0.420962 4.05604e-10 -6.86643e-09 -4.79349e-09 7.03611e-10 -1.18634e-08 -8.2792e-09 4.05606e-10 -6.86644e-09 -4.7935e-09 7.73091 5.47488 0.417314 4.05604e-10 -6.86644e-09 -4.79349e-09 2.90554 0.965183 0.102902 4.05612e-10 -6.86644e-09 -4.79349e-09 10.2786 0.731801 0.0259123 4.05599e-10 -6.86643e-09 -4.79348e-09 2.22167 -0.733487 -0.20892 -3.66269e-13 2.6766e-13 6.91563e-13 5.16788 3.60523 -80.4121 28.4377 -35.1171 -75.5313 0.0479616 5.82419 -0.822792 -8.76985e-10 1.59451e-09 3.72876e-09 -1.49947e-09 2.78954e-09 6.4328e-09 -8.76987e-10 1.5945e-09 3.72877e-09 -7.73091 5.47488 -0.417314 -8.76985e-10 1.5945e-09 3.72877e-09 -2.90554 0.965183 -0.102902 -8.76992e-10 1.5945e-09 3.72876e-09 -10.2786 0.731801 -0.0259123 -8.76979e-10 1.5945e-09 3.72876e-09 -2.22167 -0.733487 0.20892 -2.03217e-16 0.0 -3.88251e-19 -58.5148 -67.8003 -53.0636 -173.4 79.4572 174.3 -0.31085 10.2396 26.4661 2.03217e-16 0.0 3.88251e-19 -61.0394 -58.5572 -65.2029 174.794 76.471 -176.028 -1.57057 -13.4138 -4.15808
-20.1908 65.5296 -105.652 -537.942 -493.837 -169.236 1.8866 25.966 -8.40921 3.13382 -3.57753 -2.21333 -4.89658 9.72852 -11.7145 19.9833 -38.4165 -17.457 -0.0 0.0 0.0 -0.0 0.0 0.0 -2.77816e-13 5.06842e-13 7.07676e-13 38.2065 15.7744 24.4442 -27.1561 -43.5376 90.5888 -0.00490025 -2.07842 -0.29221 3.85181e-10 -5.68468e-09 -4.47748e-09 6.63969e-10 -9.81527e-09 -7.73291e-09 3.85181e-10 -5.68468e-09 -4.4775e-09 7.73091 5.47488 0.417314 3.85182e-10 -5.68469e-09 -4.47748e-09 2.90554 0.965183 0.102902 3.8519e-10 -5.68469e-09 -4.47748e-09 10.2786 0.731801 0.0259123 3.85174e-10 -5.68468e-09 -4.47748e-09 2.22167 -0.733487 -0.20892 -2.77952e-13 5.06885e-13 7.07418e-13 9.52189 4.88145 -84.183 28.3877 -34.0938 -73.9147 0.064962 6.84957 -0.968869 -1.26102e-09 3.95123e-10 3.35883e-09 -2.15906e-09 7.23831e-10 5.79452e-09 -1.26102e-09 3.95123e-10 3.35885e-09 -7.73091 5.47488 -0.417314 -1.26102e-09 3.95122e-10 3.35884e-09 -2.90554 0.965183 -0.102902 -1.26103e-09 3.95122e-10 3.35884e-09 -10.2786 0.731801 -0.0259123 -1.26101e-09 3.95122e-10 3.35883e-09 -2.22167 -0.733487 0.20892 -2.03217e-16 0.0 -3.88251e-19 -55.7089 -69.4037 -48.9156 -172.798 80.4647 173.673 0.332456 8.98858 26.2268 2.03217e-16 0.0 3.88251e-19 -56.0555 -56.2839 -59.1001 174.815 76.5651 -176.153 -1.32046 -13.1044 -3.39
-20.0512 66.3134 -105.657 -537.839 -494.659 -169.42 1.70078 25.2411 -9.03325 3.54492 -3.29095 -2.39167 -5.14762 9.76095 -11.7242 20.1664 -37.4681 -17.4647 -0.0 0.0 0.0 -0.0 0.0 0.0 -1.97104e-13 6.58338e-13 6.80887e-13 42.3226 19.4657 20.959 -27.195 -43.4706 90.4016 -0.00181251 -1.21555 -0.170861 3.90295e-10 -4.67197e-09 -4.08292e-09 6.70067e-10 -8.06203e-09 -7.05138e-09 3.90293e-10 -4.67197e-09 -4.08294e-09 7.73091 5.47488 0.417314 3.90296e-10 -4.67198e-09 -4.08292e-09 2.90554 0.965183 0.102902 3.90304e-10 -4.67198e-09 -4.08292e-09 10.2786 0.731801 0.0259123 3.90285e-10 -4.67198e-09 -4.08292e-09 2.22167 -0.733487 -0.20892 -1.97248e-13 6.58411e-13 6.80589e-13 13.5596 3.35349 -86.9414 28.3145 -33.0489 -72.1496 0.0848599 8.28143 -1.17213 -1.46844e-09 -4.55443e-10 2.92365e-09 -2.51601e-09 -7.4375e-10 5.04417e-09 -1.46844e-09 -4.55441e-10 2.92366e-09 -7.73091 5.47488 -0.417314 -1.46844e-09 -4.55442e-10 2.92365e-09 -2.90554 0.965183 -0.102902 -1.46845e-09 -4.55442e-10 2.92365e-09 -10.2786 0.731801 -0.0259123 -1.46844e-09 -4.55443e-10 2.92365e-09 -2.22167 -0.733487 0.20892 -2.03217e-16 0.0 -3.88251e-19 -52.5038 -71.2104 -44.3062 -171.966 81.5825 172.814 0.862641 7.90726 24.7612 2.03217e-16 0.0 3.88251e-19 -51.5179 -53.6873 -53.7363 174.677 77.1164 -176.103 -1.15918 -12.7018 -2.90853
-20.0059 67.096 -105.668 -537.644 -495.296 -169.689 1.23775 24.4643 -9.53243 3.99254 -3.13592 -2.54096 -5.43241 9.89096 -11.6891 20.3371 -36.6014 -17.3806 -0.0 0.0 0.0 -0.0 0.0 0.0 -1.112e-13 7.2508e-13 5.84632e-13 46.917 22.7014 16.898 -27.2709 -43.1849 89.9246 -0.000542407 -0.18896 -0.0266414 3.94317e-10 -3.82231e-09 -3.40927e-09 6.76081e-10 -6.59466e-09 -5.88888e-09 3.94315e-10 -3.82231e-09 -3.40929e-09 7.73091 5.47488 0.417314 3.94317e-10 -3.82232e-09 -3.40926e-09 2.90554 0.965183 0.102902 3.94323e-10 -3.82232e-09 -3.40927e-09 10.2786 0.731801 0.0259123 3.94306e-10 -3.82232e-09 -3.40926e-09 2.22167 -0.733487 -0.20892 -1.11315e-13 7.25153e-13 5.84338e-13 17.0572 0.446682 -89.3972 28.2104 -31.9076 -70.1339 0.121585 10.3393 -1.46688 -1.47688e-09 -1.07113e-09 2.37471e-09 -2.53236e-09 -1.80944e-09 4.09977e-09 -1.47687e-09 -1.07112e-09 2.37473e-09 -7.73091 5.47488 -0.417314 -1.47688e-09 -1.07113e-09 2.37472e-09 -2.90554 0.965183 -0.102902 -1.47688e-09 -1.07113e-09 2.37471e-09 -10.2786 0.731801 -0.0259123 -1.47687e-09 -1.07113e-09 2.37471e-09 -2.22167 -0.733487 0.20892 -2.03217e-16 0.0 -3.88251e-19 -48.7116 -73.3654 -39.0343 -170.977 82.5938 171.796 1.13599 7.06698 21.4074 2.03217e-16 0.0 3.88251e-19 -47.2865 -50.8552 -48.9596 174.368 78.0758 -175.864 -1.15198 -11.9684 -2.97642
-19.9971 67.7932 -105.635 -537.551 -495.733 -169.91 0.564296 23.6336 -9.92899 4.45569 -3.06412 -2.66837 -5.72144 10.0836 -11.6175 20.4591 -35.8124 -17.2402 -0.0 0.0 0.0 -0.0 0.0 0.0 -1.48702e-14 7.31698e-13 4.30953e-13 52.0015 25.4604 12.2192 -27.3769 -42.7062 89.178 -0.00301704 0.937937 0.131698 3.88023e-10 -2.83062e-09 -2.41043e-09 6.64749e-10 -4.88354e-09 -4.16524e-09 3.88022e-10 -2.83062e-09 -2.41044e-09 7.73091 5.47488 0.417314 3.88023e-10 -2.83063e-09 -2.41042e-09 2.90554 0.965183 0.102902 3.88027e-10 -2.83063e-09 -2.41042e-09 10.2786 0.731801 0.0259123 3.88012e-10 -2.83062e-09 -2.41041e-09 2.22167 -0.733487 -0.20892 -1.49302e-14 7.31755e-13 4.30686e-13 20.1 -0.781646 -93.4558 28.0189 -30.5628 -67.9195 0.192227 12.8806 -1.83846 -1.32491e-09 -1.58742e-09 1.61241e-09 -2.27387e-09 -2.70639e-09 2.78847e-09 -1.32491e-09 -1.58742e-09 1.61242e-09 -7.73091 5.47488 -0.417314 -1.32491e-09 -1.58742e-09 1.61242e-09 -2.90554 0.965183 -0.102902 -1.32491e-09 -1.58742e-09 1.61241e-09 -10.2786 0.731801 -0.0259123 -1.32491e-09 -1.58742e-09 1.61241e-09 -2.22167 -0.733487 0.20892 -2.03217e-16 0.0 -3.88251e-19 -43.4463 -75.8041 -32.2046 -169.759 83.528 170.546 1.25274 6.00815 16.709 2.03217e-16 0.0 3.88251e-19 -43.3343 -47.7509 -44.6162 173.854 79.3628 -175.411 -1.22861 -10.9936 -3.39977
-20.021 67.5385 -105.658 -537.659 -495.989 -169.877 -0.110751 22.7283 -10.3861 4.94194 -3.01803 -2.80868 -5.98863 10.2271 -11.4598 20.4699 -35.0264 -16.955 -0.0 0.0 0.0 -0.0 0.0 0.0 5.90947e-14 6.53139e-13 2.71006e-13 57.1178 27.7318 7.47135 -27.5541 -42.0611 87.9843 -0.00677999 1.72934 0.243027 4.38248e-10 -1.9392e-09 -1.57217e-09 7.52125e-10 -3.3462e-09 -2.71851e-09 4.38248e-10 -1.9392e-09 -1.57219e-09 7.73091 5.47488 0.417314 4.38247e-10 -1.9392e-09 -1.57217e-09 2.90554 0.965183 0.102902 4.38249e-10 -1.9392e-09 -1.57217e-09 10.2786 0.731801 0.0259123 4.38237e-10 -1.9392e-09 -1.57216e-09 2.22167 -0.733487 -0.20892 5.90942e-14 6.53175e-13 2.70775e-13 22.9714 1.71303 -97.5718 27.7361 -29.1372 -65.7363 0.29497 15.5165 -2.23423 -1.03395e-09 -1.64635e-09 8.20558e-10 -1.77665e-09 -2.81819e-09 1.42436e-09 -1.03395e-09 -1.64635e-09 8.20572e-10 -7.73091 5.47488 -0.417314 -1.03395e-09 -1.64635e-09 8.20565e-10 -2.90554 0.965183 -0.102902 -1.03395e-09 -1.64635e-09 8.20564e-10 -10.2786 0.731801 -0.0259123 -1.03395e-09 -1.64634e-09 8.20563e-10 -2.22167 -0.733487 0.20892 -2.03217e-16 0.0 -3.88251e-19 -35.3492 -78.0975 -22.5782 -167.343 84.843 168.09 1.17848 4.74985 11.7634 2.03217e-16 0.0 3.88251e-19 -39.7563 -44.3592 -40.886 172.876 81.1462 -174.481 -1.27478 -10.25 -3.72899
